<?xml version="1.0" standalone="no"?>
<!DOCTYPE svg PUBLIC "-//W3C//DTD SVG 20010904//EN"
 "http://www.w3.org/TR/2001/REC-SVG-20010904/DTD/svg10.dtd">
<svg version="1.0" xmlns="http://www.w3.org/2000/svg"
 width="225.000000pt" height="225.000000pt" viewBox="0 0 225.000000 225.000000"
 preserveAspectRatio="xMidYMid meet">

<g transform="translate(0.000000,225.000000) scale(0.100000,-0.100000)"
fill="#000000" stroke="none">
<path d="M567 2017 c-336 -142 -553 -239 -559 -250 -17 -32 1 -57 65 -86 34
-15 137 -58 230 -96 l167 -69 0 -171 c0 -166 1 -172 23 -193 l23 -22 610 0
611 0 21 23 c21 22 22 33 22 193 l0 169 226 95 c236 99 259 114 236 157 -8 14
-181 91 -554 248 -299 125 -550 230 -558 231 -8 2 -262 -101 -563 -229z"/>
<path d="M405 916 c-236 -44 -396 -227 -396 -451 0 -171 91 -316 249 -398 85
-43 147 -59 243 -59 179 0 354 86 546 266 l80 75 44 -45 c125 -129 308 -245
438 -279 76 -20 195 -22 266 -4 115 27 242 117 302 213 66 104 83 254 43 371
-88 258 -390 386 -666 284 -118 -43 -278 -153 -384 -263 l-44 -46 -61 59
c-228 223 -450 316 -660 277z m200 -151 c112 -30 244 -117 368 -242 l57 -59
-77 -75 c-151 -146 -292 -225 -422 -236 -210 -18 -396 147 -378 337 18 201
233 332 452 275z m1243 1 c139 -37 238 -146 249 -276 18 -190 -168 -355 -378
-337 -130 11 -290 102 -432 245 l-68 68 83 80 c203 195 376 265 546 220z"/>
</g>
</svg>
